<svg width="166" height="159" viewBox="0 0 166 159" fill="none" xmlns="http://www.w3.org/2000/svg">
<g filter="url(#filter0_d_62_180)">
<ellipse cx="82" cy="79.5" rx="79" ry="75.5" fill="#BA9100" fill-opacity="0.9" shape-rendering="crispEdges"/>
</g>
<g style="mix-blend-mode:hard-light" filter="url(#filter1_d_62_180)">
<path d="M67.2812 49.25V72H61.9531V49.25H67.2812ZM80.1094 49.25V72H74.75V49.25H80.1094ZM85.625 49.25V53.4844H69.3906V49.25H85.625ZM94.625 54.0312L90.3906 72H84.6406L91.6562 49.25H95.25L94.625 54.0312ZM97.9375 72L93.7031 54.0312L93 49.25H96.6562L103.688 72H97.9375ZM98.1094 63.5156V67.75H88.25V63.5156H98.1094ZM47.7812 102.281H43.2344V98.0469H47.7812C48.3125 98.0469 48.7396 97.9167 49.0625 97.6562C49.3958 97.3958 49.6354 97.0365 49.7812 96.5781C49.9375 96.1094 50.0156 95.5833 50.0156 95C50.0156 94.375 49.9375 93.7969 49.7812 93.2656C49.6354 92.7344 49.3958 92.3073 49.0625 91.9844C48.7396 91.651 48.3125 91.4844 47.7812 91.4844H45.1875V110H39.8438V87.25H47.7812C49.3542 87.25 50.7083 87.5833 51.8438 88.25C52.9896 88.9167 53.8698 89.8333 54.4844 91C55.1094 92.1562 55.4219 93.4792 55.4219 94.9688C55.4219 96.4375 55.1094 97.7188 54.4844 98.8125C53.8698 99.9062 52.9896 100.76 51.8438 101.375C50.7083 101.979 49.3542 102.281 47.7812 102.281ZM64.9688 105.75V98.3125C64.9688 97.8333 64.9323 97.4688 64.8594 97.2188C64.7865 96.9583 64.6667 96.776 64.5 96.6719C64.3438 96.5573 64.1094 96.5 63.7969 96.5C63.5469 96.5 63.3438 96.5625 63.1875 96.6875C63.0312 96.8125 62.9219 97.0052 62.8594 97.2656C62.7969 97.526 62.7656 97.8698 62.7656 98.2969H57.625C57.625 97.5156 57.776 96.7917 58.0781 96.125C58.3802 95.4479 58.8125 94.8594 59.375 94.3594C59.9375 93.8594 60.6094 93.474 61.3906 93.2031C62.1823 92.9219 63.0677 92.7812 64.0469 92.7812C65.2031 92.7812 66.2396 92.9688 67.1562 93.3438C68.0729 93.7083 68.7969 94.2969 69.3281 95.1094C69.8698 95.9219 70.1406 97 70.1406 98.3438V105.734C70.1406 106.839 70.1979 107.677 70.3125 108.25C70.4271 108.812 70.5833 109.307 70.7812 109.734V110H65.6562C65.4167 109.479 65.2396 108.844 65.125 108.094C65.0208 107.333 64.9688 106.552 64.9688 105.75ZM65.5469 99.6719L65.5781 102.484H64.25C63.9271 102.484 63.651 102.562 63.4219 102.719C63.1927 102.865 63 103.062 62.8438 103.312C62.6979 103.562 62.5938 103.844 62.5312 104.156C62.4688 104.458 62.4375 104.771 62.4375 105.094C62.4375 105.552 62.4844 105.885 62.5781 106.094C62.6823 106.302 62.8073 106.438 62.9531 106.5C63.1094 106.552 63.2812 106.578 63.4688 106.578C63.8646 106.578 64.1927 106.495 64.4531 106.328C64.724 106.151 64.9167 105.943 65.0312 105.703C65.1458 105.464 65.1771 105.26 65.125 105.094L65.6562 107.156C65.4792 107.542 65.3073 107.922 65.1406 108.297C64.974 108.661 64.7656 109 64.5156 109.312C64.2656 109.615 63.9583 109.854 63.5938 110.031C63.2292 110.219 62.7708 110.312 62.2188 110.312C61.3438 110.312 60.5312 110.135 59.7812 109.781C59.0417 109.427 58.4427 108.88 57.9844 108.141C57.5365 107.401 57.3125 106.464 57.3125 105.328C57.3125 104.547 57.4323 103.818 57.6719 103.141C57.9219 102.453 58.3125 101.849 58.8438 101.328C59.375 100.807 60.0885 100.401 60.9844 100.109C61.8906 99.8177 62.9948 99.6719 64.2969 99.6719H65.5469ZM77.8594 96.7031V110H72.7188V93.0938H77.5312L77.8594 96.7031ZM77.25 100.969L76.0938 101C76.0729 99.7083 76.1875 98.5573 76.4375 97.5469C76.6979 96.526 77.0677 95.6615 77.5469 94.9531C78.0365 94.2448 78.6198 93.7083 79.2969 93.3438C79.974 92.9688 80.7292 92.7812 81.5625 92.7812C82.1979 92.7812 82.7865 92.8958 83.3281 93.125C83.8802 93.3542 84.3542 93.724 84.75 94.2344C85.1458 94.7448 85.4531 95.4219 85.6719 96.2656C85.8906 97.099 86 98.1302 86 99.3594V110H80.8438V99.3438C80.8438 98.6667 80.7812 98.151 80.6562 97.7969C80.5417 97.4323 80.3594 97.1823 80.1094 97.0469C79.8698 96.9115 79.5625 96.8438 79.1875 96.8438C78.8229 96.8438 78.5104 96.9479 78.25 97.1562C78 97.3646 77.7969 97.6562 77.6406 98.0312C77.4948 98.3958 77.3906 98.8281 77.3281 99.3281C77.276 99.8281 77.25 100.375 77.25 100.969ZM95.9375 110.312C94.7292 110.312 93.651 110.146 92.7031 109.812C91.7656 109.479 90.9792 108.99 90.3438 108.344C89.7083 107.688 89.224 106.891 88.8906 105.953C88.5677 105.016 88.4062 103.943 88.4062 102.734V100.891C88.4062 99.5365 88.5469 98.3542 88.8281 97.3438C89.1198 96.3333 89.5521 95.4948 90.125 94.8281C90.6979 94.151 91.4271 93.6406 92.3125 93.2969C93.1979 92.9531 94.2396 92.7812 95.4375 92.7812C96.4896 92.7812 97.4219 92.9375 98.2344 93.25C99.0573 93.5625 99.75 94.0469 100.312 94.7031C100.885 95.349 101.323 96.1771 101.625 97.1875C101.927 98.1875 102.078 99.375 102.078 100.75V103.203H90.3281V99.9062H97.0625V99.3281C97.0729 98.6406 97.0104 98.1198 96.875 97.7656C96.75 97.4115 96.5625 97.1719 96.3125 97.0469C96.0625 96.9115 95.7552 96.8438 95.3906 96.8438C94.9635 96.8438 94.625 96.9167 94.375 97.0625C94.125 97.2083 93.9427 97.4375 93.8281 97.75C93.7135 98.0625 93.6354 98.4792 93.5938 99C93.5625 99.5208 93.5469 100.151 93.5469 100.891V102.734C93.5469 103.464 93.6042 104.057 93.7188 104.516C93.8438 104.974 94.0208 105.328 94.25 105.578C94.4896 105.828 94.776 106.005 95.1094 106.109C95.4531 106.203 95.8438 106.25 96.2812 106.25C96.9062 106.25 97.5156 106.146 98.1094 105.938C98.7031 105.719 99.2083 105.365 99.625 104.875L101.719 108.062C101.438 108.427 101.021 108.786 100.469 109.141C99.9167 109.484 99.2604 109.766 98.5 109.984C97.7396 110.203 96.8854 110.312 95.9375 110.312ZM109.578 86V110H104.453V86H109.578ZM119.781 105.406C119.781 105.104 119.672 104.865 119.453 104.688C119.234 104.51 118.927 104.328 118.531 104.141C118.135 103.953 117.661 103.703 117.109 103.391C116.443 103.089 115.812 102.771 115.219 102.438C114.635 102.094 114.12 101.719 113.672 101.312C113.234 100.906 112.891 100.432 112.641 99.8906C112.391 99.3385 112.266 98.7031 112.266 97.9844C112.266 97.2552 112.396 96.5781 112.656 95.9531C112.927 95.3281 113.323 94.7812 113.844 94.3125C114.365 93.8333 115 93.4583 115.75 93.1875C116.5 92.9167 117.359 92.7812 118.328 92.7812C119.651 92.7812 120.792 93 121.75 93.4375C122.708 93.8646 123.448 94.4844 123.969 95.2969C124.49 96.099 124.75 97.0417 124.75 98.125H119.625C119.625 97.6979 119.589 97.349 119.516 97.0781C119.443 96.7969 119.307 96.5885 119.109 96.4531C118.922 96.3177 118.656 96.25 118.312 96.25C118.135 96.25 117.953 96.3073 117.766 96.4219C117.578 96.526 117.422 96.6875 117.297 96.9062C117.172 97.1146 117.109 97.3802 117.109 97.7031C117.109 97.9323 117.151 98.1302 117.234 98.2969C117.328 98.4531 117.458 98.6042 117.625 98.75C117.792 98.8854 117.984 99.026 118.203 99.1719C118.432 99.3177 118.698 99.4792 119 99.6562C119.896 100 120.781 100.375 121.656 100.781C122.531 101.188 123.26 101.734 123.844 102.422C124.438 103.109 124.734 104.052 124.734 105.25C124.734 106 124.583 106.682 124.281 107.297C123.979 107.911 123.547 108.448 122.984 108.906C122.432 109.365 121.76 109.714 120.969 109.953C120.177 110.193 119.286 110.312 118.297 110.312C116.901 110.312 115.719 110.036 114.75 109.484C113.792 108.932 113.068 108.229 112.578 107.375C112.089 106.521 111.844 105.641 111.844 104.734H116.609C116.62 105.255 116.698 105.672 116.844 105.984C116.99 106.286 117.193 106.505 117.453 106.641C117.714 106.766 118.042 106.828 118.438 106.828C118.74 106.828 118.99 106.776 119.188 106.672C119.385 106.557 119.531 106.396 119.625 106.188C119.729 105.969 119.781 105.708 119.781 105.406Z" fill="#FFFCFC" fill-opacity="0.9" shape-rendering="crispEdges"/>
</g>
<defs>
<filter id="filter0_d_62_180" x="0" y="0" width="166" height="159" filterUnits="userSpaceOnUse" color-interpolation-filters="sRGB">
<feFlood flood-opacity="0" result="BackgroundImageFix"/>
<feColorMatrix in="SourceAlpha" type="matrix" values="0 0 0 0 0 0 0 0 0 0 0 0 0 0 0 0 0 0 127 0" result="hardAlpha"/>
<feOffset dx="1"/>
<feGaussianBlur stdDeviation="2"/>
<feComposite in2="hardAlpha" operator="out"/>
<feColorMatrix type="matrix" values="0 0 0 0 0.729167 0 0 0 0 0.56875 0 0 0 0 0 0 0 0 0.8 0"/>
<feBlend mode="normal" in2="BackgroundImageFix" result="effect1_dropShadow_62_180"/>
<feBlend mode="normal" in="SourceGraphic" in2="effect1_dropShadow_62_180" result="shape"/>
</filter>
<filter id="filter1_d_62_180" x="38.8438" y="47.25" width="88.9062" height="65.0625" filterUnits="userSpaceOnUse" color-interpolation-filters="sRGB">
<feFlood flood-opacity="0" result="BackgroundImageFix"/>
<feColorMatrix in="SourceAlpha" type="matrix" values="0 0 0 0 0 0 0 0 0 0 0 0 0 0 0 0 0 0 127 0" result="hardAlpha"/>
<feOffset dx="1"/>
<feGaussianBlur stdDeviation="1"/>
<feComposite in2="hardAlpha" operator="out"/>
<feColorMatrix type="matrix" values="0 0 0 0 1 0 0 0 0 1 0 0 0 0 1 0 0 0 0.25 0"/>
<feBlend mode="normal" in2="BackgroundImageFix" result="effect1_dropShadow_62_180"/>
<feBlend mode="normal" in="SourceGraphic" in2="effect1_dropShadow_62_180" result="shape"/>
</filter>
</defs>
</svg>
