<?xml version="1.0" standalone="no"?>
<!DOCTYPE svg PUBLIC "-//W3C//DTD SVG 20010904//EN"
 "http://www.w3.org/TR/2001/REC-SVG-20010904/DTD/svg10.dtd">
<svg version="1.0" xmlns="http://www.w3.org/2000/svg"
 width="5978.000000pt" height="1319.000000pt" viewBox="0 0 5978.000000 1319.000000"
 preserveAspectRatio="xMidYMid meet">

<g transform="translate(0.000000,1319.000000) scale(0.100000,-0.100000)"
fill="#000000" stroke="none">
<path d="M26880 13170 c-2257 -72 -3872 -302 -6535 -929 -625 -147 -1337 -320
-1630 -397 -695 -180 -2592 -734 -3364 -980 -2159 -690 -3981 -1360 -6191
-2274 -756 -313 -714 -302 -1315 -365 -1888 -200 -3709 -436 -4985 -646 -535
-88 -1212 -227 -1368 -280 -123 -42 -202 -112 -478 -421 -365 -410 -598 -702
-732 -917 -87 -141 -195 -359 -233 -471 -37 -111 -49 -248 -29 -343 18 -89 72
-186 137 -249 100 -95 197 -139 344 -158 108 -13 1166 -14 1509 0 1163 46
2284 216 3605 546 1158 290 2148 729 3655 1622 682 404 953 550 1890 1016
2196 1092 4389 2050 6025 2631 1594 566 3952 1200 5631 1514 1409 264 2504
382 4364 472 355 17 1577 23 1945 10 1860 -68 3953 -353 5590 -762 2375 -594
4958 -1605 6995 -2737 1008 -560 2063 -1245 3075 -1996 l170 -127 95 6 c52 3
128 8 167 11 l73 6 -363 267 c-1693 1248 -2274 1645 -3174 2169 -2220 1294
-4491 2234 -6985 2891 -1762 465 -3413 739 -5098 846 -677 43 -823 47 -1680
50 -470 2 -970 -1 -1110 -5z"/>
<path d="M20045 9704 c-3749 -1526 -5235 -2197 -6374 -2881 -418 -251 -519
-333 -588 -479 -33 -70 -37 -86 -37 -158 1 -143 71 -266 171 -297 97 -30 352
-24 1453 31 1132 57 1536 75 2880 125 2076 77 1517 66 9910 210 2489 43 3650
55 5960 62 2547 7 3615 -8 5115 -73 4814 -208 9616 -950 12510 -1934 1468
-499 2816 -1180 3897 -1966 300 -219 650 -495 878 -693 320 -278 861 -822
1059 -1066 394 -484 593 -576 1215 -562 219 5 613 38 874 73 407 54 700 263
767 546 48 205 -41 696 -182 998 -185 396 -515 759 -951 1045 -260 170 -830
465 -1295 669 -1207 532 -3147 1167 -5017 1645 -2196 560 -5407 1152 -7660
1410 -1902 219 -5350 424 -8415 501 -1384 35 -3212 46 -4880 31 -1391 -13
-1481 -14 -5075 -76 -4934 -86 -5426 -94 -5660 -100 -129 -3 -581 -15 -1005
-25 -1453 -37 -1881 -43 -2161 -31 -382 16 -758 58 -897 101 -174 54 -224 142
-157 277 72 145 207 269 645 597 806 604 1366 987 1905 1304 278 163 490 277
1133 611 300 157 546 286 544 286 -1 1 -20 5 -42 8 -36 5 -93 -15 -520 -189z"/>
</g>
</svg>
