<svg width="351" height="120" viewBox="0 0 351 120" fill="none" xmlns="http://www.w3.org/2000/svg">
<g filter="url(#filter0_d_50_66)">
<path d="M103.57 83.498H95.3252V78.0464H103.57C104.931 78.0464 106.023 77.7599 106.846 77.187C107.67 76.6141 108.27 75.8263 108.646 74.8237C109.039 73.8211 109.236 72.6842 109.236 71.4131C109.236 70.1956 109.039 69.0498 108.646 67.9756C108.27 66.9014 107.67 66.033 106.846 65.3706C106.023 64.7082 104.931 64.377 103.57 64.377H97.1514V98H90.6523V58.8984H103.57C106.166 58.8984 108.368 59.4355 110.176 60.5098C112.002 61.584 113.399 63.061 114.366 64.9409C115.333 66.8029 115.816 68.9424 115.816 71.3594C115.816 73.8659 115.333 76.0322 114.366 77.8584C113.399 79.6667 112.002 81.0632 110.176 82.0479C108.368 83.0146 106.166 83.498 103.57 83.498ZM136.274 64.2695L126.821 98H120L132.407 58.8984H136.65L136.274 64.2695ZM143.821 98L134.341 64.2695L133.884 58.8984H138.208L150.669 98H143.821ZM143.982 83.4712V88.9497H125.774V83.4712H143.982ZM187.133 58.8984V98H180.742L166.938 70.9297V98H160.627V58.8984H166.938L180.849 86.1567V58.8984H187.133ZM221.798 92.5483V98H204.826V92.5483H221.798ZM206.544 58.8984V98H200.019V58.8984H206.544ZM219.516 75.1729V80.5439H204.826V75.1729H219.516ZM221.637 58.8984V64.377H204.826V58.8984H221.637ZM253.751 92.5483V98H237.503V92.5483H253.751ZM239.222 58.8984V98H232.696V58.8984H239.222ZM281.272 87.9023C281.272 87.0967 281.183 86.3805 281.004 85.7539C280.843 85.1094 280.529 84.5275 280.064 84.0083C279.598 83.4891 278.936 82.9788 278.077 82.4775C277.235 81.9762 276.143 81.466 274.8 80.9468C273.261 80.356 271.819 79.7114 270.477 79.0132C269.152 78.297 267.979 77.4914 266.958 76.5962C265.956 75.6831 265.168 74.6178 264.595 73.4004C264.022 72.1829 263.736 70.7686 263.736 69.1572C263.736 67.5638 264.013 66.1136 264.568 64.8066C265.141 63.4818 265.947 62.3449 266.985 61.396C268.042 60.4292 269.295 59.6862 270.745 59.167C272.195 58.6299 273.798 58.3613 275.552 58.3613C278.077 58.3613 280.234 58.8984 282.024 59.9727C283.833 61.0469 285.211 62.4881 286.16 64.2964C287.127 66.1047 287.61 68.1099 287.61 70.312H281.111C281.111 69.0409 280.914 67.9129 280.521 66.9282C280.127 65.9435 279.518 65.1737 278.694 64.6187C277.871 64.0636 276.806 63.7861 275.499 63.7861C274.299 63.7861 273.305 64.0189 272.518 64.4844C271.748 64.9499 271.175 65.5854 270.799 66.3911C270.441 67.1968 270.262 68.1188 270.262 69.1572C270.262 69.8734 270.414 70.5269 270.718 71.1177C271.023 71.6906 271.461 72.2188 272.034 72.7021C272.607 73.1855 273.305 73.6421 274.129 74.0718C274.952 74.5015 275.901 74.9132 276.976 75.3071C278.802 75.9696 280.395 76.7036 281.756 77.5093C283.117 78.3149 284.236 79.2191 285.113 80.2217C286.008 81.2064 286.67 82.3254 287.1 83.5786C287.548 84.8319 287.771 86.2552 287.771 87.8486C287.771 89.46 287.494 90.9281 286.939 92.2529C286.402 93.5599 285.614 94.6789 284.576 95.6099C283.537 96.5409 282.284 97.266 280.816 97.7852C279.348 98.2865 277.701 98.5371 275.875 98.5371C274.192 98.5371 272.571 98.2865 271.014 97.7852C269.474 97.2839 268.095 96.5229 266.878 95.5024C265.66 94.464 264.694 93.166 263.978 91.6084C263.279 90.0508 262.93 88.2246 262.93 86.1299H269.456C269.456 87.3831 269.608 88.4574 269.913 89.3525C270.217 90.2298 270.656 90.9549 271.229 91.5278C271.819 92.0828 272.509 92.4946 273.296 92.7632C274.102 93.0138 274.997 93.1392 275.982 93.1392C277.199 93.1392 278.193 92.9243 278.963 92.4946C279.751 92.047 280.333 91.4294 280.708 90.6416C281.084 89.8538 281.272 88.9408 281.272 87.9023Z" fill="#BA9100" fill-opacity="0.9" shape-rendering="crispEdges"/>
</g>
<g filter="url(#filter1_d_50_66)">
<path d="M10.4468 2.89844V42H3.9209V2.89844H10.4468ZM36.894 2.89844V42H30.395V2.89844H36.894ZM46.8574 2.89844V8.37695H20.5391V2.89844H46.8574ZM68.2559 8.26953L58.8027 42H51.9814L64.3887 2.89844H68.6318L68.2559 8.26953ZM75.8022 42L66.3223 8.26953L65.8657 2.89844H70.1895L82.6504 42H75.8022ZM75.9634 27.4712V32.9497H57.7554V27.4712H75.9634Z" fill="white"/>
</g>
<defs>
<filter id="filter0_d_50_66" x="89.6523" y="56.3613" width="201.119" height="44.1758" filterUnits="userSpaceOnUse" color-interpolation-filters="sRGB">
<feFlood flood-opacity="0" result="BackgroundImageFix"/>
<feColorMatrix in="SourceAlpha" type="matrix" values="0 0 0 0 0 0 0 0 0 0 0 0 0 0 0 0 0 0 127 0" result="hardAlpha"/>
<feOffset dx="1"/>
<feGaussianBlur stdDeviation="1"/>
<feComposite in2="hardAlpha" operator="out"/>
<feColorMatrix type="matrix" values="0 0 0 0 0.729167 0 0 0 0 0.56875 0 0 0 0 0 0 0 0 0.9 0"/>
<feBlend mode="normal" in2="BackgroundImageFix" result="effect1_dropShadow_50_66"/>
<feBlend mode="normal" in="SourceGraphic" in2="effect1_dropShadow_50_66" result="shape"/>
</filter>
<filter id="filter1_d_50_66" x="2.9209" y="0.898438" width="82.7295" height="43.1016" filterUnits="userSpaceOnUse" color-interpolation-filters="sRGB">
<feFlood flood-opacity="0" result="BackgroundImageFix"/>
<feColorMatrix in="SourceAlpha" type="matrix" values="0 0 0 0 0 0 0 0 0 0 0 0 0 0 0 0 0 0 127 0" result="hardAlpha"/>
<feOffset dx="1"/>
<feGaussianBlur stdDeviation="1"/>
<feComposite in2="hardAlpha" operator="out"/>
<feColorMatrix type="matrix" values="0 0 0 0 1 0 0 0 0 1 0 0 0 0 1 0 0 0 1 0"/>
<feBlend mode="normal" in2="BackgroundImageFix" result="effect1_dropShadow_50_66"/>
<feBlend mode="normal" in="SourceGraphic" in2="effect1_dropShadow_50_66" result="shape"/>
</filter>
</defs>
</svg>
